<?xml version="1.0" standalone="no"?>
<!DOCTYPE svg PUBLIC "-//W3C//DTD SVG 20010904//EN"
 "http://www.w3.org/TR/2001/REC-SVG-20010904/DTD/svg10.dtd">
<svg version="1.0" xmlns="http://www.w3.org/2000/svg"
 width="640.000000pt" height="640.000000pt" viewBox="0 0 640.000000 640.000000"
 preserveAspectRatio="xMidYMid meet">

<g transform="translate(0.000000,640.000000) scale(0.100000,-0.100000)"
fill="#000000" stroke="none">
<path d="M2935 6389 c-398 -32 -802 -147 -1176 -335 -1247 -624 -1946 -2003
-1714 -3380 228 -1352 1277 -2401 2629 -2629 1378 -232 2755 467 3381 1715
460 918 460 1962 -1 2881 -581 1160 -1819 1854 -3119 1748z m255 -116 c70
-153 199 -295 348 -381 34 -20 62 -39 62 -43 0 -4 -20 -19 -45 -34 -76 -44
-135 -149 -135 -240 0 -117 93 -237 209 -269 131 -37 263 21 324 140 16 31 80
94 227 223 113 99 206 177 208 173 1 -4 -52 -122 -119 -262 -141 -297 -185
-391 -245 -518 -42 -89 -44 -98 -44 -183 l0 -89 -835 0 -835 0 0 97 0 96 -202
351 c-287 499 -291 506 -286 511 2 2 114 -76 249 -175 160 -118 251 -191 264
-214 72 -121 190 -182 305 -157 126 27 204 104 231 230 8 40 7 63 -5 111 -20
79 -57 130 -123 172 -51 32 -64 48 -42 48 7 0 48 24 93 54 140 93 264 237 322
371 15 36 30 65 33 65 3 -1 22 -35 41 -77z m790 -1668 l0 -85 -832 2 -833 3
-3 69 c-2 38 -1 75 2 83 4 11 148 13 836 13 l830 0 0 -85z m-225 -286 c3 -4
-9 -31 -28 -61 -19 -30 -42 -78 -51 -108 -30 -101 -16 -253 34 -349 l19 -39
58 5 c70 6 172 -25 298 -90 105 -55 154 -105 185 -187 42 -117 61 -143 214
-300 268 -276 376 -409 376 -466 l0 -33 -66 35 c-36 19 -80 34 -97 34 -39 0
-97 -34 -97 -57 0 -9 26 -44 58 -77 35 -37 66 -80 77 -109 22 -58 17 -69 -62
-157 -71 -78 -135 -110 -223 -110 -73 0 -123 15 -265 79 -114 52 -164 54 -223
11 -23 -16 -48 -43 -57 -60 l-16 -30 41 6 c35 6 43 3 60 -19 31 -39 108 -85
155 -92 32 -5 65 0 139 24 160 51 246 42 283 -30 37 -72 -17 -247 -115 -368
-31 -39 -37 -42 -43 -25 -4 10 -8 33 -8 51 -1 41 -13 48 -38 20 -29 -31 -43
-62 -43 -92 0 -51 -56 3 -69 66 -6 32 -10 35 -76 51 -178 46 -310 150 -387
305 -71 144 -65 258 21 355 l31 36 -40 7 c-100 17 -300 205 -370 349 -65 132
-83 216 -84 395 l-1 153 -33 -38 c-73 -84 -104 -175 -103 -305 0 -154 51 -309
157 -486 35 -59 64 -108 64 -110 0 -12 -57 2 -109 28 -79 40 -141 109 -208
236 -29 54 -53 89 -53 79 0 -49 56 -231 100 -322 64 -133 141 -215 352 -374
355 -268 568 -546 640 -835 29 -120 31 -307 4 -412 -16 -66 -36 -97 -36 -57 0
49 -69 216 -121 294 -57 85 -139 175 -139 152 0 -6 13 -48 30 -93 62 -171 109
-416 110 -570 0 -73 -2 -78 -41 -135 -88 -126 -351 -410 -369 -399 -4 2 -3 28
1 57 9 71 -5 182 -37 276 -144 429 -607 770 -1209 892 -286 58 -481 156 -655
330 -259 257 -401 670 -369 1071 68 865 812 1482 1915 1589 60 5 125 12 144
14 58 6 368 2 375 -5z m-1784 -3118 c131 -62 317 -123 473 -157 187 -40 289
-70 368 -110 265 -134 488 -373 554 -594 15 -51 21 -146 10 -158 -12 -11 -291
-6 -389 7 -183 25 -361 93 -453 174 -25 22 -42 42 -39 45 3 3 47 5 98 3 134
-4 317 30 317 59 0 4 -18 32 -41 60 -48 61 -100 87 -197 101 -155 22 -187 30
-255 60 -227 103 -433 288 -518 466 -38 82 -43 93 -35 93 1 0 50 -22 107 -49z"/>
<path d="M3096 5027 c-25 -68 -46 -129 -46 -135 0 -17 200 -17 200 1 1 17 -94
257 -101 257 -4 0 -27 -55 -53 -123z"/>
<path d="M2411 4626 c-16 -20 -6 -52 19 -59 24 -6 43 15 38 45 -4 27 -39 36
-57 14z"/>
<path d="M2590 4625 c-20 -25 -8 -50 25 -50 21 0 31 5 33 18 4 21 -14 47 -33
47 -7 0 -18 -7 -25 -15z"/>
<path d="M2772 4628 c-30 -30 3 -77 40 -57 30 16 16 69 -17 69 -6 0 -16 -5
-23 -12z"/>
<path d="M2941 4621 c-23 -42 23 -75 56 -39 13 14 15 23 7 36 -16 25 -51 27
-63 3z"/>
<path d="M3120 4625 c-14 -16 -5 -51 14 -58 15 -6 56 19 56 33 0 13 -30 40
-44 40 -8 0 -19 -7 -26 -15z"/>
<path d="M3302 4628 c-30 -30 3 -77 40 -57 30 16 16 69 -17 69 -6 0 -16 -5
-23 -12z"/>
<path d="M3482 4628 c-30 -30 3 -77 40 -57 30 16 16 69 -17 69 -6 0 -16 -5
-23 -12z"/>
<path d="M3656 4624 c-9 -8 -16 -19 -16 -23 0 -14 25 -31 46 -31 27 0 41 34
24 55 -16 19 -35 19 -54 -1z"/>
<path d="M3830 4625 c-6 -8 -9 -23 -5 -35 10 -31 59 -24 63 9 6 37 -34 55 -58
26z"/>
<path d="M2573 3900 c-168 -26 -303 -82 -423 -178 -80 -64 -200 -174 -200
-183 0 -5 47 22 103 60 141 94 317 186 317 165 0 -3 -20 -31 -44 -62 -41 -52
-142 -249 -133 -259 2 -2 84 46 183 107 239 148 364 208 579 280 l180 61 -75
-6 c-163 -12 -345 -61 -507 -136 -46 -21 -83 -34 -83 -30 0 12 87 82 168 136
63 42 89 67 65 64 -5 -1 -63 -9 -130 -19z"/>
<path d="M3044 3635 c-40 -7 -89 -18 -110 -25 -71 -23 -208 -99 -279 -155
-127 -100 -269 -278 -315 -395 -72 -182 -65 -419 17 -573 43 -81 171 -200 351
-327 90 -63 211 -150 268 -192 57 -43 107 -78 109 -78 13 0 2 51 -24 111 -47
110 -127 216 -269 357 -74 73 -132 135 -130 138 7 6 183 -62 215 -83 47 -31
39 -5 -18 62 -176 205 -241 392 -190 543 27 80 68 145 153 246 114 134 112
144 -14 70 -43 -26 -82 -44 -85 -40 -9 9 73 110 136 168 66 60 142 111 217
144 30 13 54 28 54 34 0 12 5 12 -86 -5z"/>
<path d="M2004 3419 c-229 -169 -341 -362 -385 -660 -25 -173 7 -422 77 -597
89 -222 220 -367 408 -452 34 -16 150 -58 257 -93 229 -77 333 -125 401 -186
27 -24 52 -41 55 -37 9 9 -26 82 -79 162 -57 88 -142 174 -208 212 -27 16 -47
32 -43 35 14 14 142 6 212 -13 40 -12 76 -18 79 -16 3 3 -26 35 -63 72 -57 55
-91 76 -204 131 -285 137 -319 155 -374 202 -112 94 -210 254 -258 421 -29
102 -38 327 -16 420 23 95 74 210 150 334 37 60 66 111 64 113 -2 2 -35 -20
-73 -48z"/>
<path d="M3963 3300 c-76 -20 -133 -45 -133 -59 0 -5 15 -11 33 -15 17 -3 69
-25 113 -47 78 -38 84 -40 122 -28 40 11 62 8 147 -27 18 -7 18 -6 -3 27 -13
19 -36 59 -52 90 -43 84 -88 95 -227 59z"/>
<path d="M3144 2240 c12 -62 73 -173 134 -245 35 -41 101 -101 161 -145 262
-191 307 -226 372 -288 38 -35 72 -62 75 -59 18 18 -53 160 -128 254 -68 86
-123 132 -263 220 -158 100 -220 148 -295 230 -62 67 -62 68 -56 33z"/>
<path d="M2943 1537 c326 -210 591 -543 707 -887 18 -52 34 -102 37 -110 9
-26 22 20 22 81 1 66 -22 206 -43 267 -15 40 -14 43 2 40 9 -2 40 -33 67 -70
58 -78 64 -71 45 44 -19 111 -86 235 -179 329 -142 143 -359 256 -584 304 -81
18 -99 18 -74 2z"/>
</g>
</svg>
